<mxfile host="app.diagrams.net" modified="2024-05-16T07:04:35.355Z" agent="Mozilla/5.0 (Windows NT 10.0; Win64; x64) AppleWebKit/537.36 (KHTML, like Gecko) Chrome/124.0.0.0 Safari/537.36" version="24.3.1" etag="kIPHkFkj3b2zM6eW6_rC" type="github">
  <diagram name="第 1 页" id="YpZrW79ujn2SESfjTI_Y">
    <mxGraphModel>
      <root>
        <mxCell id="0" />
        <mxCell id="1" parent="0" />
      </root>
    </mxGraphModel>
  </diagram>
</mxfile>
